<?xml version="1.0" encoding="UTF-8" standalone="no"?>
<svg width="15px" height="15px" viewBox="0 0 15 15" version="1.1" xmlns="http://www.w3.org/2000/svg" xmlns:xlink="http://www.w3.org/1999/xlink" xmlns:sketch="http://www.bohemiancoding.com/sketch/ns">
    <!-- Generator: Sketch 3.3.2 (12043) - http://www.bohemiancoding.com/sketch -->
    <title>unkown-user</title>
    <desc>Created with Sketch.</desc>
    <defs></defs>
    <g id="Page-1" stroke="none" stroke-width="1" fill="none" fill-rule="evenodd" sketch:type="MSPage">
        <g id="Alarm-Console" sketch:type="MSArtboardGroup" transform="translate(-1024.000000, -114.000000)" fill="#878999">
            <g id="Group" sketch:type="MSLayerGroup" transform="translate(0.000000, 50.000000)">
                <g transform="translate(0.000000, 46.000000)" id="unkown-user" sketch:type="MSShapeGroup">
                    <g transform="translate(1024.115385, 17.400000)">
                        <path d="M3.24941538,3.73889231 C3.59033846,3.91735385 3.92387692,3.99981538 4.30049231,3.99981538 C5.10541538,3.99981538 6.06110769,3.52227692 6.3448,2.97766154 L6.60572308,2.47858462 L6.88510769,2.96781538 C7.41003077,3.8872 7.96326154,4.17766154 8.85741538,4.00535385 C8.93741538,3.99058462 9.26603077,3.94012308 9.47526154,3.90935385 C9.19156923,2.03981538 7.8088,0.6152 6.14664615,0.6152 C4.59218462,0.6152 3.28264615,1.86258462 2.88695385,3.55304615 L3.24941538,3.73889231 Z" id="Fill-749"></path>
                        <path d="M7.38461538,12 C7.38461538,11.0246154 7.73661538,10.1304615 8.31938462,9.43569231 L8,9.32184615 L8,7.95876923 C8.92123077,7.24246154 9.53107692,6.01292308 9.53107692,4.61538462 C9.53107692,4.58461538 9.528,4.55446154 9.52738462,4.52369231 C9.32923077,4.55261538 9.04492308,4.59630769 8.97292308,4.60984615 C8.77292308,4.64861538 8.58276923,4.66830769 8.40246154,4.66830769 C7.66769231,4.66830769 7.08923077,4.34461538 6.59876923,3.66153846 C6.07323077,4.21353846 5.14584615,4.61538462 4.30030769,4.61538462 C3.82092308,4.61538462 3.39692308,4.51076923 2.96615385,4.28492308 L2.78215385,4.19076923 C2.76923077,4.33046154 2.76184615,4.472 2.76184615,4.61538462 C2.76184615,6.01969231 3.37907692,7.25476923 4.30769231,7.96861538 L4.30769231,9.32184615 L1.42892308,10.3495385 C0.574153846,10.6553846 0,11.4707692 0,12.3778462 L0,14.1538462 L8.01907692,14.1538462 C7.61969231,13.5310769 7.38461538,12.7932308 7.38461538,12" id="Fill-750"></path>
                        <path d="M11.6923077,12.2722462 L11.6923077,12.9153231 C11.6923077,13.0851692 11.5544615,13.2230154 11.3846154,13.2230154 C11.2147692,13.2230154 11.0769231,13.0851692 11.0769231,12.9153231 L11.0769231,12.0039385 C11.0769231,11.8334769 11.2147692,11.6962462 11.3846154,11.6962462 C11.7181538,11.6962462 11.9889231,11.4242462 11.9889231,11.0913231 C11.9889231,10.7584 11.7181538,10.4876308 11.3846154,10.4876308 C11.0516923,10.4876308 10.7803077,10.7584 10.7803077,11.0913231 C10.7803077,11.2611692 10.6424615,11.3990154 10.4726154,11.3990154 C10.3021538,11.3990154 10.1649231,11.2611692 10.1649231,11.0913231 C10.1649231,10.4187077 10.712,9.87224615 11.3846154,9.87224615 C12.0572308,9.87224615 12.6043077,10.4187077 12.6043077,11.0913231 C12.6043077,11.6574769 12.2166154,12.1350154 11.6923077,12.2722462 M11.3846154,13.9793231 C11.2166154,13.9793231 11.0806154,13.8439385 11.0806154,13.6753231 C11.0806154,13.5079385 11.2166154,13.3713231 11.3846154,13.3713231 C11.5526154,13.3713231 11.6886154,13.5079385 11.6886154,13.6753231 C11.6886154,13.8439385 11.5526154,13.9793231 11.3846154,13.9793231 M11.3846154,8.61563077 C9.51815385,8.61563077 8,10.1337846 8,12.0002462 C8,13.8667077 9.51815385,15.3848615 11.3846154,15.3848615 C13.2510769,15.3848615 14.7692308,13.8667077 14.7692308,12.0002462 C14.7692308,10.1337846 13.2510769,8.61563077 11.3846154,8.61563077" id="Fill-751"></path>
                    </g>
                </g>
            </g>
        </g>
    </g>
</svg>